<svg id="visual" viewBox="0 0 1080 1080" width="1080" height="1080" xmlns="http://www.w3.org/2000/svg" xmlns:xlink="http://www.w3.org/1999/xlink" version="1.1"><rect x="0" y="0" width="1080" height="1080" fill="#ffd83d"></rect><g fill="none" stroke="#eec72b" stroke-width="5"><circle r="70" cx="128" cy="84"></circle><circle r="25" cx="736" cy="542"></circle><circle r="66" cx="634" cy="377"></circle><circle r="37" cx="646" cy="984"></circle><circle r="44" cx="111" cy="964"></circle><circle r="64" cx="808" cy="225"></circle><circle r="40" cx="964" cy="868"></circle><circle r="28" cx="545" cy="496"></circle><circle r="26" cx="804" cy="808"></circle><circle r="58" cx="736" cy="94"></circle><circle r="63" cx="290" cy="61"></circle><circle r="63" cx="441" cy="159"></circle><circle r="44" cx="639" cy="217"></circle><circle r="56" cx="147" cy="284"></circle><circle r="68" cx="312" cy="246"></circle><circle r="52" cx="199" cy="790"></circle><circle r="32" cx="451" cy="1029"></circle><circle r="38" cx="1040" cy="543"></circle><circle r="27" cx="39" cy="546"></circle><circle r="48" cx="951" cy="51"></circle><circle r="66" cx="436" cy="723"></circle><circle r="54" cx="620" cy="772"></circle><circle r="28" cx="233" cy="600"></circle><circle r="46" cx="397" cy="374"></circle><circle r="42" cx="14" cy="776"></circle><circle r="63" cx="963" cy="201"></circle><circle r="53" cx="308" cy="935"></circle><circle r="55" cx="1044" cy="1055"></circle><circle r="43" cx="853" cy="417"></circle><circle r="35" cx="846" cy="651"></circle><circle r="32" cx="871" cy="1046"></circle><circle r="24" cx="20" cy="370"></circle><circle r="36" cx="518" cy="887"></circle><circle r="45" cx="208" cy="444"></circle><circle r="50" cx="545" cy="56"></circle><circle r="29" cx="606" cy="626"></circle><circle r="47" cx="1055" cy="716"></circle><circle r="29" cx="388" cy="584"></circle><circle r="48" cx="16" cy="1072"></circle><circle r="35" cx="1015" cy="356"></circle><circle r="40" cx="238" cy="1066"></circle><circle r="50" cx="14" cy="215"></circle></g></svg>