<svg id="visual" viewBox="0 0 900 600" width="900" height="600" xmlns="http://www.w3.org/2000/svg" xmlns:xlink="http://www.w3.org/1999/xlink" version="1.1"><path d="M0 452L10.7 451.7C21.3 451.3 42.7 450.7 64.2 447.7C85.7 444.7 107.3 439.3 128.8 439.8C150.3 440.3 171.7 446.7 193 448.5C214.3 450.3 235.7 447.7 257 450.7C278.3 453.7 299.7 462.3 321.2 460.8C342.7 459.3 364.3 447.7 385.8 447.2C407.3 446.7 428.7 457.3 450 456.3C471.3 455.3 492.7 442.7 514.2 441.2C535.7 439.7 557.3 449.3 578.8 455.2C600.3 461 621.7 463 643 465.2C664.3 467.3 685.7 469.7 707 465.3C728.3 461 749.7 450 771.2 447.8C792.7 445.7 814.3 452.3 835.8 450.2C857.3 448 878.7 437 889.3 431.5L900 426L900 601L889.3 601C878.7 601 857.3 601 835.8 601C814.3 601 792.7 601 771.2 601C749.7 601 728.3 601 707 601C685.7 601 664.3 601 643 601C621.7 601 600.3 601 578.8 601C557.3 601 535.7 601 514.2 601C492.7 601 471.3 601 450 601C428.7 601 407.3 601 385.8 601C364.3 601 342.7 601 321.2 601C299.7 601 278.3 601 257 601C235.7 601 214.3 601 193 601C171.7 601 150.3 601 128.8 601C107.3 601 85.7 601 64.2 601C42.7 601 21.3 601 10.7 601L0 601Z" fill="#205375"></path><path d="M0 469L10.7 467.5C21.3 466 42.7 463 64.2 461.7C85.7 460.3 107.3 460.7 128.8 463C150.3 465.3 171.7 469.7 193 468.3C214.3 467 235.7 460 257 458.8C278.3 457.7 299.7 462.3 321.2 463.5C342.7 464.7 364.3 462.3 385.8 465.2C407.3 468 428.7 476 450 476.3C471.3 476.7 492.7 469.3 514.2 465.8C535.7 462.3 557.3 462.7 578.8 467.2C600.3 471.7 621.7 480.3 643 478.7C664.3 477 685.7 465 707 464.8C728.3 464.7 749.7 476.3 771.2 476.8C792.7 477.3 814.3 466.7 835.8 464.8C857.3 463 878.7 470 889.3 473.5L900 477L900 601L889.3 601C878.7 601 857.3 601 835.8 601C814.3 601 792.7 601 771.2 601C749.7 601 728.3 601 707 601C685.7 601 664.3 601 643 601C621.7 601 600.3 601 578.8 601C557.3 601 535.7 601 514.2 601C492.7 601 471.3 601 450 601C428.7 601 407.3 601 385.8 601C364.3 601 342.7 601 321.2 601C299.7 601 278.3 601 257 601C235.7 601 214.3 601 193 601C171.7 601 150.3 601 128.8 601C107.3 601 85.7 601 64.2 601C42.7 601 21.3 601 10.7 601L0 601Z" fill="#1b4b6b"></path><path d="M0 492L10.7 491.2C21.3 490.3 42.7 488.7 64.2 488.5C85.7 488.3 107.3 489.7 128.8 490.2C150.3 490.7 171.7 490.3 193 489.7C214.3 489 235.7 488 257 487.2C278.3 486.3 299.7 485.7 321.2 488C342.7 490.3 364.3 495.7 385.8 499.2C407.3 502.7 428.7 504.3 450 501.5C471.3 498.7 492.7 491.3 514.2 489.8C535.7 488.3 557.3 492.7 578.8 498.5C600.3 504.3 621.7 511.7 643 515.3C664.3 519 685.7 519 707 518C728.3 517 749.7 515 771.2 512.8C792.7 510.7 814.3 508.3 835.8 507.7C857.3 507 878.7 508 889.3 508.5L900 509L900 601L889.3 601C878.7 601 857.3 601 835.8 601C814.3 601 792.7 601 771.2 601C749.7 601 728.3 601 707 601C685.7 601 664.3 601 643 601C621.7 601 600.3 601 578.8 601C557.3 601 535.7 601 514.2 601C492.7 601 471.3 601 450 601C428.7 601 407.3 601 385.8 601C364.3 601 342.7 601 321.2 601C299.7 601 278.3 601 257 601C235.7 601 214.3 601 193 601C171.7 601 150.3 601 128.8 601C107.3 601 85.7 601 64.2 601C42.7 601 21.3 601 10.7 601L0 601Z" fill="#154362"></path><path d="M0 522L10.7 524.8C21.3 527.7 42.7 533.3 64.2 535.7C85.7 538 107.3 537 128.8 534.2C150.3 531.3 171.7 526.7 193 528.3C214.3 530 235.7 538 257 539.5C278.3 541 299.7 536 321.2 532C342.7 528 364.3 525 385.8 524.3C407.3 523.7 428.7 525.3 450 525.8C471.3 526.3 492.7 525.7 514.2 525.8C535.7 526 557.3 527 578.8 527C600.3 527 621.7 526 643 525.5C664.3 525 685.7 525 707 527C728.3 529 749.7 533 771.2 535C792.7 537 814.3 537 835.8 535.2C857.3 533.3 878.7 529.7 889.3 527.8L900 526L900 601L889.3 601C878.7 601 857.3 601 835.8 601C814.3 601 792.7 601 771.2 601C749.7 601 728.3 601 707 601C685.7 601 664.3 601 643 601C621.7 601 600.3 601 578.8 601C557.3 601 535.7 601 514.2 601C492.7 601 471.3 601 450 601C428.7 601 407.3 601 385.8 601C364.3 601 342.7 601 321.2 601C299.7 601 278.3 601 257 601C235.7 601 214.3 601 193 601C171.7 601 150.3 601 128.8 601C107.3 601 85.7 601 64.2 601C42.7 601 21.3 601 10.7 601L0 601Z" fill="#0f3b58"></path><path d="M0 552L10.7 553.7C21.3 555.3 42.7 558.7 64.2 559.7C85.7 560.7 107.3 559.3 128.8 560.2C150.3 561 171.7 564 193 564.7C214.3 565.3 235.7 563.7 257 560.7C278.3 557.7 299.7 553.3 321.2 554.7C342.7 556 364.3 563 385.8 563.8C407.3 564.7 428.7 559.3 450 557.2C471.3 555 492.7 556 514.2 555.3C535.7 554.7 557.3 552.3 578.8 554C600.3 555.7 621.7 561.3 643 562.7C664.3 564 685.7 561 707 558C728.3 555 749.7 552 771.2 552.7C792.7 553.3 814.3 557.7 835.8 558C857.3 558.3 878.7 554.7 889.3 552.8L900 551L900 601L889.3 601C878.7 601 857.3 601 835.8 601C814.3 601 792.7 601 771.2 601C749.7 601 728.3 601 707 601C685.7 601 664.3 601 643 601C621.7 601 600.3 601 578.8 601C557.3 601 535.7 601 514.2 601C492.7 601 471.3 601 450 601C428.7 601 407.3 601 385.8 601C364.3 601 342.7 601 321.2 601C299.7 601 278.3 601 257 601C235.7 601 214.3 601 193 601C171.7 601 150.3 601 128.8 601C107.3 601 85.7 601 64.2 601C42.7 601 21.3 601 10.7 601L0 601Z" fill="#08334f"></path></svg>